<?xml version="1.0" standalone="no"?>
<!DOCTYPE svg PUBLIC "-//W3C//DTD SVG 20010904//EN"
 "http://www.w3.org/TR/2001/REC-SVG-20010904/DTD/svg10.dtd">
<svg version="1.0" xmlns="http://www.w3.org/2000/svg"
 width="450.000000pt" height="637.000000pt" viewBox="0 0 450.000000 637.000000"
 preserveAspectRatio="xMidYMid meet">
<metadata>
Created by potrace 1.10, written by Peter Selinger 2001-2011
</metadata>
<g transform="translate(0.000000,637.000000) scale(0.100000,-0.100000)"
fill="#000000" stroke="none">
<path d="M295 4290 c4 -6 13 -9 21 -8 12 3 14 -90 14 -674 0 -469 3 -678 10
-678 8 0 10 209 9 679 -1 590 -3 680 -16 685 -24 9 -45 7 -38 -4z"/>
<path d="M270 3603 c0 -515 3 -682 12 -691 14 -14 44 -16 52 -3 3 4 -6 8 -19
7 l-25 -1 -3 678 c-1 374 -5 681 -9 684 -5 2 -8 -301 -8 -674z"/>
<path d="M3014 3938 c-36 -39 -67 -106 -64 -139 4 -48 2 -51 -30 -34 -53 27
-190 9 -190 -25 0 -19 27 -64 52 -86 32 -30 104 -65 114 -56 5 4 -8 -12 -28
-35 -35 -40 -59 -97 -57 -138 0 -11 7 2 14 28 26 94 67 134 161 157 31 7 32 7
37 -35 9 -61 35 -106 84 -146 56 -45 100 -57 118 -32 18 24 9 116 -16 167 -18
35 -18 50 -1 52 40 4 142 90 142 120 0 36 -151 70 -198 45 -18 -10 -20 -6 -26
37 -4 26 -12 61 -18 77 -11 30 -46 75 -58 75 -3 0 -20 -15 -36 -32z m67 -35
c33 -68 31 -140 -6 -193 -15 -22 -33 -40 -40 -40 -16 0 -65 96 -65 124 1 47
57 153 82 155 3 1 17 -20 29 -46z m200 -144 c53 -18 56 -26 23 -60 -36 -38
-98 -68 -142 -69 -29 0 -102 23 -102 33 0 2 11 19 25 37 47 63 118 85 196 59z
m-380 -9 c37 -10 109 -74 109 -96 0 -29 -78 -48 -135 -33 -42 12 -129 91 -122
112 8 24 89 33 148 17z m205 -126 c47 -19 71 -40 90 -76 15 -29 24 -132 12
-143 -15 -15 -110 49 -134 90 -28 49 -34 145 -9 145 2 0 20 -7 41 -16z"/>
<path d="M795 3633 c-89 -24 -199 -113 -241 -195 -27 -53 -46 -128 -33 -128 5
0 9 11 9 24 0 39 68 162 111 201 23 21 67 49 98 64 48 22 69 26 151 26 85 0
101 -3 150 -28 60 -31 122 -85 151 -132 l19 -30 0 93 c0 91 0 92 25 92 l25 0
0 -355 0 -355 -25 2 c-25 2 -25 4 -25 92 l0 89 -27 -40 c-37 -54 -79 -87 -150
-121 -50 -23 -71 -27 -148 -27 -78 0 -97 4 -147 28 -115 56 -186 155 -213 293
l-15 79 6 -70 c14 -185 156 -325 354 -348 42 -5 138 16 188 42 21 11 61 40 89
65 l50 46 2 -62 c1 -69 8 -81 42 -76 l24 3 0 360 0 360 -30 0 -30 0 -3 -68 -3
-68 -52 47 c-79 72 -144 98 -247 101 -47 1 -94 -1 -105 -4z"/>
<path d="M1675 3616 c-27 -13 -59 -33 -69 -45 -27 -30 -36 -26 -32 14 2 30 -1
36 -21 41 -55 14 -53 24 -51 -358 l3 -353 2 353 3 352 25 0 c24 0 25 -3 25
-53 l0 -53 44 40 c130 121 343 96 437 -52 16 -25 29 -39 29 -30 0 9 24 40 54
69 70 71 130 93 229 87 105 -7 180 -54 235 -147 l27 -46 3 -262 c3 -260 3
-261 -17 -256 -12 3 -21 1 -21 -6 0 -15 35 -14 48 2 16 19 9 481 -8 527 -30
81 -111 162 -189 188 -19 7 -66 12 -106 12 -90 0 -157 -31 -219 -102 l-43 -50
-23 36 c-24 40 -86 86 -139 104 -60 21 -170 15 -226 -12z"/>
<path d="M3559 3631 c-69 -22 -129 -59 -173 -110 -12 -13 -26 -29 -32 -36 -7
-6 -25 -36 -40 -66 -26 -49 -29 -64 -29 -154 0 -97 2 -102 37 -165 58 -103
119 -158 210 -190 54 -19 174 -30 194 -18 6 4 23 9 38 12 37 7 101 45 157 95
l46 40 2 -61 c1 -34 3 -64 6 -66 3 -3 5 37 4 89 0 59 -3 86 -8 74 -16 -39 -97
-108 -161 -139 -58 -28 -75 -31 -155 -31 -79 0 -97 3 -150 29 -32 16 -79 50
-104 75 -188 194 -117 506 137 602 146 54 340 -12 423 -146 l19 -30 0 93 c0
91 0 92 25 92 l25 0 3 -352 2 -353 0 355 0 355 -30 0 c-28 0 -30 -3 -37 -50
-4 -27 -5 -58 -2 -67 8 -27 -3 -22 -37 17 -17 19 -44 43 -60 52 -15 9 -25 21
-22 26 3 6 1 7 -5 4 -5 -4 -31 2 -57 13 -49 21 -172 27 -226 11z"/>
<path d="M787 3566 c-55 -20 -111 -60 -141 -99 -128 -168 -76 -395 112 -488
38 -20 63 -24 132 -24 73 0 93 4 142 28 67 33 111 80 147 157 37 78 36 183 -2
257 -37 72 -77 114 -139 148 -43 24 -67 29 -133 32 -52 2 -93 -2 -118 -11z
m229 -25 c195 -92 240 -349 87 -492 -53 -49 -79 -64 -142 -79 -183 -44 -364
92 -372 280 -2 59 10 117 34 160 78 142 249 199 393 131z"/>
<path d="M1692 3555 c-29 -15 -64 -42 -78 -61 -49 -63 -53 -92 -54 -347 0
-155 -3 -236 -10 -232 -5 3 -18 1 -27 -4 -15 -9 -14 -10 10 -11 15 0 30 6 32
13 3 6 7 116 8 242 2 127 8 246 14 266 6 20 25 53 43 73 88 97 235 103 328 13
66 -63 67 -67 72 -347 l5 -255 30 0 30 0 5 245 c4 207 8 251 23 285 37 81 97
123 188 132 71 7 120 -9 171 -55 73 -66 77 -85 81 -362 l2 -245 3 248 c2 234
1 250 -19 292 -82 174 -329 183 -427 16 l-27 -46 -3 -253 -3 -253 -22 3 c-22
3 -22 5 -27 260 l-5 256 -30 43 c-51 73 -102 101 -187 106 -64 4 -79 1 -126
-22z"/>
<path d="M3544 3559 c-70 -27 -125 -77 -164 -151 -30 -56 -34 -72 -34 -143 -1
-73 2 -85 35 -145 79 -144 241 -206 392 -150 73 27 127 76 167 152 30 56 34
72 34 143 1 72 -3 86 -34 143 -18 35 -52 79 -74 98 -83 72 -217 94 -322 53z
m251 -21 c59 -30 111 -84 144 -150 18 -36 23 -63 23 -120 1 -125 -66 -229
-181 -281 -67 -32 -177 -29 -251 5 -76 35 -110 74 -161 181 -19 42 -15 154 9
208 36 84 122 159 205 180 59 15 158 4 212 -23z"/>
<path d="M2967 3555 c-53 -18 -73 -39 -87 -91 -17 -60 -5 -85 94 -192 88 -96
104 -137 86 -211 -18 -75 -74 -127 -150 -141 -39 -7 -40 -7 -40 21 0 25 4 29
28 29 71 0 129 76 117 152 -7 37 -26 62 -144 188 -8 8 -22 33 -32 55 -12 26
-19 33 -19 20 0 -26 35 -76 98 -142 69 -70 83 -95 84 -143 1 -57 -26 -91 -88
-112 -45 -15 -49 -19 -49 -49 0 -27 4 -33 23 -34 32 -2 112 37 144 71 39 43
54 103 40 165 -13 55 -14 56 -94 144 -32 34 -55 65 -50 70 4 4 2 5 -5 1 -15
-8 -44 54 -38 81 13 64 49 104 105 113 19 3 30 8 25 12 -6 3 -27 0 -48 -7z"/>
<path d="M1533 3365 c0 -22 2 -30 4 -17 2 12 2 30 0 40 -3 9 -5 -1 -4 -23z"/>
<path d="M1534 3165 c0 -88 2 -123 3 -77 2 46 2 118 0 160 -1 42 -3 5 -3 -83z"/>
<path d="M2593 3065 c0 -33 2 -45 4 -27 2 18 2 45 0 60 -2 15 -4 0 -4 -33z"/>
<path d="M3031 3094 c0 -11 3 -14 6 -6 3 7 2 16 -1 19 -3 4 -6 -2 -5 -13z"/>
<path d="M1532 2980 c0 -14 2 -19 5 -12 2 6 2 18 0 25 -3 6 -5 1 -5 -13z"/>
<path d="M3990 2910 c0 -5 7 -10 16 -10 8 0 12 5 9 10 -3 6 -10 10 -16 10 -5
0 -9 -4 -9 -10z"/>
<path d="M2021 2719 c-16 -9 -32 -23 -36 -29 -6 -9 -10 -9 -16 1 -6 9 -9 -1
-9 -29 0 -58 -14 -82 -48 -82 -44 0 -56 15 -63 77 l-6 58 -2 -51 c-2 -71 23
-99 82 -95 9 0 26 15 36 32 18 30 19 30 26 9 9 -28 60 -50 94 -40 14 4 42 6
61 5 22 -1 25 -1 8 2 -19 3 -28 10 -28 22 0 27 -10 32 -34 16 -11 -8 -24 -15
-28 -15 -14 0 -38 32 -38 50 0 26 29 53 52 47 10 -3 16 -1 12 4 -18 30 -74
-10 -74 -53 0 -46 54 -75 80 -43 15 19 23 14 14 -9 -8 -21 -62 -21 -92 0 -15
10 -22 25 -22 48 0 47 20 68 71 76 39 5 41 7 17 11 -17 4 -38 0 -57 -12z"/>
<path d="M2155 2730 l-30 -8 27 -1 c15 0 30 4 33 9 3 6 5 9 3 9 -2 -1 -16 -5
-33 -9z"/>
<path d="M4008 2735 c-3 -3 -44 -6 -93 -6 -70 -1 -91 -5 -106 -20 -22 -22 -15
-53 17 -68 13 -6 24 -17 24 -26 0 -20 -10 -19 -27 3 -13 15 -13 15 -3 -6 7
-13 18 -22 28 -20 28 5 24 32 -8 51 -33 20 -41 60 -14 71 33 13 54 6 60 -19 3
-14 10 -25 14 -25 4 0 5 11 2 25 -4 24 -3 25 56 25 49 0 61 -3 65 -17 4 -14 5
-13 6 4 1 21 -11 37 -21 28z"/>
<path d="M370 2706 c-5 -14 -19 -45 -30 -68 -11 -23 -18 -44 -15 -46 2 -3 16
20 30 49 15 32 23 43 20 27 -4 -21 -1 -28 11 -28 11 0 14 5 10 16 -14 36 -18
64 -9 64 5 0 18 -28 30 -62 11 -34 25 -64 32 -66 6 -2 -2 27 -18 64 -33 76
-46 88 -61 50z"/>
<path d="M563 2723 c9 -2 25 -2 35 0 9 3 1 5 -18 5 -19 0 -27 -2 -17 -5z"/>
<path d="M636 2722 c-2 -4 12 -6 32 -4 30 3 35 2 25 -9 -7 -7 -13 -36 -13 -65
0 -33 5 -54 13 -57 6 -3 -4 -5 -23 -5 -19 0 -29 2 -22 5 6 2 12 18 12 34 0 27
-3 29 -35 29 -30 0 -35 -3 -35 -24 0 -14 5 -28 10 -31 6 -3 10 4 10 17 0 17 6
24 20 24 22 0 28 -32 8 -38 -6 -2 -8 -9 -5 -15 5 -7 48 -11 125 -10 90 1 99 2
37 4 -43 2 -85 9 -92 15 -15 12 -17 86 -3 108 8 13 10 13 14 0 3 -8 7 -37 9
-65 l3 -50 2 59 c2 46 -2 62 -15 72 -20 15 -69 19 -77 6z"/>
<path d="M762 2723 c30 -3 48 -9 51 -19 3 -9 4 -8 3 3 -1 15 -11 18 -51 19
l-50 1 47 -4z"/>
<path d="M860 2683 c-11 -27 -25 -56 -31 -66 -6 -11 -8 -21 -5 -25 3 -3 17 19
31 49 14 30 23 42 20 27 -4 -21 -2 -28 11 -28 11 0 14 5 10 16 -14 36 -18 64
-9 64 5 0 20 -29 32 -65 17 -49 28 -65 40 -63 12 2 17 17 19 52 2 27 0 52 -5
57 -4 4 -6 -14 -5 -41 4 -56 -11 -68 -29 -22 -28 71 -39 92 -49 92 -5 0 -19
-21 -30 -47z"/>
<path d="M960 2726 c0 -2 15 -6 34 -8 19 -2 32 0 30 4 -5 8 -64 12 -64 4z"/>
<path d="M1083 2723 c9 -2 25 -2 35 0 9 3 1 5 -18 5 -19 0 -27 -2 -17 -5z"/>
<path d="M1165 2723 c11 -2 37 -27 58 -56 l37 -51 0 40 c0 22 -5 45 -12 52 -9
9 -5 12 21 12 30 0 32 -2 20 -17 -10 -12 -11 -17 -2 -20 9 -3 8 -14 -2 -43 -8
-24 -10 -42 -4 -45 5 -4 9 6 10 22 0 26 1 26 9 7 13 -32 50 -54 90 -53 34 1
33 2 -9 9 -51 8 -71 30 -71 76 0 41 30 64 82 64 27 0 38 -5 41 -17 3 -14 4
-13 3 2 -1 16 -9 21 -44 23 -24 2 -50 -2 -58 -9 -11 -9 -18 -9 -26 -1 -14 14
-64 16 -73 3 -3 -5 -1 -12 5 -16 5 -3 10 -16 10 -28 -1 -20 -4 -18 -33 16 -19
22 -40 36 -52 36 -20 -2 -20 -2 0 -6z m145 -23 c0 -5 -5 -10 -11 -10 -5 0 -7
5 -4 10 3 6 8 10 11 10 2 0 4 -4 4 -10z"/>
<path d="M1540 2710 c-7 -14 -7 -20 0 -20 5 0 10 7 10 15 0 12 13 15 60 15
l60 0 0 -49 c0 -64 28 -101 76 -101 52 0 88 40 80 88 -6 43 -37 72 -75 72 -26
0 -79 -29 -54 -30 6 0 15 5 18 10 3 6 19 10 35 10 50 0 81 -51 61 -103 -11
-29 -46 -43 -85 -33 -27 7 -51 55 -41 85 3 11 1 29 -5 41 -9 17 -21 20 -70 20
-49 0 -61 -3 -70 -20z"/>
<path d="M1860 2721 c23 -4 31 -9 23 -14 -29 -18 -7 -118 25 -117 28 1 45 41
36 86 -9 51 -19 41 -16 -16 4 -44 2 -50 -16 -50 -15 0 -21 8 -24 34 -2 19 -1
43 3 53 9 26 2 33 -34 32 l-32 -2 35 -6z"/>
<path d="M1933 2723 c9 -2 25 -2 35 0 9 3 1 5 -18 5 -19 0 -27 -2 -17 -5z"/>
<path d="M2205 2721 c-3 -5 -1 -12 5 -16 17 -11 11 -35 -9 -35 -13 0 -21 8
-23 23 -3 20 -4 20 -9 -5 -6 -26 -4 -28 27 -28 30 0 34 3 34 25 0 14 -6 26
-12 26 -7 1 5 5 27 9 l40 7 -37 2 c-20 0 -39 -3 -43 -8z"/>
<path d="M2428 2723 c38 -3 52 -8 52 -19 0 -8 4 -13 9 -9 6 3 12 -19 14 -52
l3 -58 2 62 c1 41 -2 63 -10 66 -7 3 4 6 24 6 46 1 68 -7 68 -25 0 -8 5 -14
11 -14 7 0 6 8 -3 23 -14 20 -23 22 -119 23 -57 0 -80 -1 -51 -3z"/>
<path d="M2642 2714 c-13 -9 -24 -30 -28 -54 -4 -22 -11 -37 -16 -34 -5 3 -6
15 -2 27 6 20 5 20 -10 8 -14 -12 -15 -17 -3 -35 18 -27 74 -55 113 -56 42 0
69 31 69 82 0 67 -68 101 -123 62z m101 -26 c49 -66 -43 -149 -98 -88 -14 16
-21 18 -28 8 -6 -9 -7 -7 -3 5 3 10 6 27 6 36 0 10 10 30 21 45 28 35 73 33
102 -6z"/>
<path d="M2661 2696 c-7 -8 -11 -31 -9 -52 6 -73 70 -72 76 2 5 53 -38 85 -67
50z m47 -8 c7 -7 12 -26 12 -44 0 -35 -23 -52 -46 -33 -17 14 -18 76 -1 82 19
8 22 8 35 -5z"/>
<path d="M2792 2723 c21 -3 30 -14 44 -54 13 -34 21 -46 28 -39 8 8 7 13 0 18
-6 4 -15 18 -19 32 -11 38 -25 50 -54 49 l-26 -2 27 -4z"/>
<path d="M2897 2723 c-4 -3 -7 -11 -7 -17 0 -7 3 -7 8 0 4 7 16 14 27 17 19 5
19 5 -1 6 -11 0 -24 -2 -27 -6z"/>
<path d="M3043 2715 c-3 -9 -3 -19 1 -22 3 -4 6 1 6 10 0 14 11 17 60 17 48 0
60 -3 60 -16 0 -9 5 -12 11 -8 9 5 10 -9 7 -50 -3 -31 -1 -56 3 -56 4 0 9 24
11 53 3 43 -1 55 -19 70 -28 23 -131 24 -140 2z"/>
<path d="M3203 2723 c9 -2 23 -2 30 0 6 3 -1 5 -18 5 -16 0 -22 -2 -12 -5z"/>
<path d="M3267 2724 c-3 -4 -2 -15 3 -25 12 -22 -2 -33 -30 -24 -11 4 -20 2
-20 -4 0 -6 16 -11 35 -11 27 0 35 4 35 18 0 10 -5 23 -12 30 -9 9 -4 12 23
11 18 0 28 -3 22 -6 -8 -3 -13 -26 -13 -63 0 -37 5 -60 13 -63 6 -3 -4 -5 -23
-5 -19 0 -29 2 -22 5 19 7 15 63 -4 63 -13 0 -14 -3 -5 -14 9 -11 10 -20 1
-36 -15 -27 -5 -30 100 -27 67 2 85 5 86 17 0 9 -1 10 -3 3 -6 -17 -105 -17
-121 -1 -16 16 -16 100 0 116 7 7 33 12 59 12 37 0 49 -4 52 -17 4 -14 5 -12
6 5 1 21 -2 22 -87 22 -49 0 -92 -3 -95 -6z"/>
<path d="M3551 2721 c-8 -5 4 -7 33 -4 29 4 51 1 61 -7 19 -16 19 -59 0 -66
-8 -4 -15 -11 -15 -17 0 -5 9 -2 20 8 26 23 26 71 1 85 -24 12 -81 13 -100 1z"/>
<path d="M3723 2723 c-7 -3 -13 -11 -13 -18 0 -7 -13 -38 -30 -69 -31 -59 -27
-74 17 -63 11 3 7 5 -11 6 -27 1 -28 2 -13 19 8 9 22 33 31 52 9 20 14 25 12
13 -3 -15 1 -23 10 -23 17 0 18 14 2 40 -9 14 -9 23 -2 30 8 8 17 -6 33 -49
12 -33 27 -64 34 -68 8 -5 1 -10 -18 -14 -21 -4 -13 -6 30 -7 85 -1 119 34 78
81 -10 10 -18 26 -18 35 0 21 -29 22 -33 2 -1 -9 11 -23 28 -33 48 -29 35 -77
-20 -77 -22 0 -31 9 -48 43 -12 23 -24 54 -28 69 -6 28 -20 38 -41 31z m132
-33 c3 -5 1 -10 -4 -10 -6 0 -11 5 -11 10 0 6 2 10 4 10 3 0 8 -4 11 -10z"/>
<path d="M2111 2704 c0 -11 3 -14 6 -6 3 7 2 16 -1 19 -3 4 -6 -2 -5 -13z"/>
<path d="M558 2663 c5 -76 10 -83 11 -15 0 34 -2 62 -7 62 -4 0 -6 -21 -4 -47z"/>
<path d="M597 2703 c-4 -3 -7 -15 -7 -25 0 -14 8 -18 35 -18 30 0 35 3 34 23
-1 17 -2 18 -6 4 -6 -24 -49 -19 -45 6 3 18 0 21 -11 10z"/>
<path d="M1080 2671 c0 -22 -5 -52 -12 -66 -11 -23 -16 -25 -92 -27 l-81 -2
80 -3 c68 -3 82 -1 93 14 7 10 16 16 19 13 4 -3 7 19 8 48 1 29 -2 55 -7 58
-4 3 -8 -13 -8 -35z"/>
<path d="M1117 2703 c-8 -16 0 -107 9 -110 7 -2 8 15 4 47 -4 28 -3 53 2 56
18 11 26 -8 24 -56 -2 -27 1 -47 6 -44 4 3 8 27 8 54 0 34 -4 50 -16 54 -21 8
-32 8 -37 -1z"/>
<path d="M1346 2694 c-20 -20 -20 -53 0 -82 18 -25 52 -29 61 -7 5 15 -27 49
-37 38 -3 -2 3 -9 13 -14 9 -6 15 -14 12 -20 -16 -25 -57 12 -51 47 9 47 31
58 60 28 14 -13 16 -13 16 -1 0 28 -50 36 -74 11z"/>
<path d="M1623 2650 c0 -36 2 -50 4 -32 2 17 2 47 0 65 -2 17 -4 3 -4 -33z"/>
<path d="M1722 2698 c-7 -7 -12 -29 -12 -50 0 -31 5 -41 25 -50 34 -16 55 4
55 53 0 28 -5 41 -19 49 -25 13 -34 13 -49 -2z m28 -9 c0 -5 4 -8 9 -5 11 7
21 -17 21 -49 0 -27 -17 -36 -42 -23 -18 9 -26 67 -11 81 10 10 23 8 23 -4z"/>
<path d="M2130 2651 c0 -34 4 -60 9 -57 9 6 7 104 -3 113 -3 4 -6 -22 -6 -56z"/>
<path d="M2257 2703 c-10 -9 -8 -101 2 -107 4 -3 7 16 6 42 -1 26 3 53 8 60
10 13 -4 18 -16 5z"/>
<path d="M2385 2649 c0 -32 3 -59 8 -59 4 0 7 24 7 54 0 30 -3 57 -7 59 -5 3
-8 -21 -8 -54z"/>
<path d="M2421 2686 c-1 -25 2 -28 24 -24 20 4 25 1 26 -16 0 -11 3 -15 6 -8
7 18 -5 62 -17 62 -6 0 -9 -5 -7 -11 1 -6 -3 -13 -10 -16 -6 -2 -13 6 -16 19
-4 20 -4 19 -6 -6z"/>
<path d="M2536 2703 c-3 -4 -6 -17 -6 -30 0 -17 5 -24 17 -21 9 2 18 10 20 18
4 13 3 13 -6 0 -9 -13 -11 -13 -11 2 0 9 5 18 12 20 8 3 6 6 -4 10 -9 4 -19 4
-22 1z"/>
<path d="M2780 2696 c0 -9 5 -16 10 -16 6 0 10 4 10 9 0 6 -4 13 -10 16 -5 3
-10 -1 -10 -9z"/>
<path d="M2935 2702 c-6 -4 -8 -30 -5 -62 l6 -55 4 63 c3 34 5 62 5 62 0 0 -4
-4 -10 -8z"/>
<path d="M3078 2703 c-18 -5 -33 -33 -18 -33 6 0 10 5 10 10 0 6 5 10 11 10 7
0 10 -18 7 -50 -1 -28 0 -50 5 -50 4 0 7 27 7 60 0 33 -1 59 -2 59 -2 -1 -10
-3 -20 -6z"/>
<path d="M3225 2700 c-3 -5 -1 -10 4 -10 6 0 11 5 11 10 0 6 -2 10 -4 10 -3 0
-8 -4 -11 -10z"/>
<path d="M3348 2654 c-1 -31 0 -58 4 -60 3 -2 8 21 10 52 1 31 0 58 -4 60 -3
2 -8 -21 -10 -52z"/>
<path d="M3388 2704 c-5 -4 -8 -16 -8 -26 0 -20 39 -26 41 -5 1 6 5 -1 8 -18
4 -16 3 -36 -2 -43 -6 -7 -7 -15 -4 -18 7 -7 24 27 21 44 -1 6 -2 18 -3 25 0
7 -8 22 -17 33 -13 16 -15 16 -10 2 3 -10 1 -20 -4 -23 -5 -3 -10 4 -12 16 -2
11 -6 17 -10 13z"/>
<path d="M3601 2682 c-1 -27 2 -33 17 -30 18 3 31 48 14 48 -6 0 -8 -9 -5 -20
3 -11 1 -20 -5 -20 -6 0 -13 12 -15 28 -4 25 -4 24 -6 -6z"/>
<path d="M3930 2700 c-12 -8 -12 -10 -1 -10 10 0 12 -11 9 -45 -3 -25 -2 -48
3 -51 5 -3 9 22 9 55 0 34 -1 61 -2 61 -2 0 -10 -5 -18 -10z"/>
<path d="M3970 2655 c0 -30 5 -57 10 -60 7 -4 8 8 4 36 -6 33 -4 45 10 54 15
12 15 13 -4 18 -18 5 -20 0 -20 -48z"/>
<path d="M750 2680 c0 -13 7 -20 20 -20 11 0 20 5 20 11 0 5 4 7 10 4 6 -3 7
1 4 9 -3 9 -10 16 -16 16 -5 0 -7 -4 -3 -9 3 -5 1 -12 -5 -16 -5 -3 -10 1 -10
9 0 9 -4 16 -10 16 -5 0 -10 -9 -10 -20z"/>
<path d="M1003 2645 c0 -33 2 -45 4 -27 2 18 2 45 0 60 -2 15 -4 0 -4 -33z"/>
<path d="M1568 2693 c6 -2 12 -19 12 -35 0 -40 13 -28 14 12 1 24 -3 30 -19
29 -11 0 -14 -3 -7 -6z"/>
<path d="M3124 2651 c1 -39 5 -56 16 -59 12 -4 13 -2 3 9 -6 8 -14 35 -16 59
-4 39 -4 38 -3 -9z"/>
<path d="M3140 2696 c0 -2 7 -9 15 -16 13 -11 14 -10 9 4 -5 14 -24 23 -24 12z"/>
<path d="M3565 2646 c0 -30 3 -52 8 -49 4 2 7 26 7 54 0 27 -3 49 -7 49 -5 0
-8 -24 -8 -54z"/>
<path d="M2870 2675 c0 -8 2 -15 4 -15 2 0 6 7 10 15 3 8 1 15 -4 15 -6 0 -10
-7 -10 -15z"/>
<path d="M2896 2674 c-8 -22 -8 -89 1 -80 8 7 17 96 10 96 -3 0 -8 -7 -11 -16z"/>
<path d="M1180 2643 c0 -23 5 -45 10 -48 7 -4 9 2 4 19 -8 35 1 33 37 -9 17
-19 35 -35 39 -35 5 0 -4 15 -20 33 -16 17 -38 43 -49 57 l-20 25 -1 -42z"/>
<path d="M2095 2670 c3 -5 8 -10 11 -10 2 0 4 5 4 10 0 6 -5 10 -11 10 -5 0
-7 -4 -4 -10z"/>
<path d="M2779 2635 c-6 -40 -4 -53 7 -43 3 3 4 23 2 44 l-3 39 -6 -40z"/>
<path d="M2814 2650 c2 -14 7 -35 11 -47 6 -19 3 -22 -27 -26 -26 -3 -23 -4
12 -4 50 0 70 11 70 36 -1 11 -5 8 -15 -9 l-13 -25 -12 30 c-7 17 -16 39 -21
50 -8 17 -9 17 -5 -5z"/>
<path d="M805 2650 c-3 -5 -1 -10 4 -10 6 0 11 5 11 10 0 6 -2 10 -4 10 -3 0
-8 -4 -11 -10z"/>
<path d="M1412 2653 c23 -4 26 -8 24 -36 -2 -18 -1 -23 1 -12 3 11 9 25 14 31
11 14 -11 25 -44 23 -17 -2 -16 -3 5 -6z"/>
<path d="M750 2625 c0 -13 5 -27 10 -30 6 -3 10 3 10 14 0 12 5 21 10 21 19 0
10 16 -10 17 -15 1 -20 -4 -20 -22z"/>
<path d="M2170 2630 c0 -11 0 -23 -1 -27 0 -4 4 -9 9 -11 6 -2 8 6 5 16 -6 24
14 39 30 23 9 -9 9 -16 0 -30 -15 -24 -7 -31 31 -30 l31 2 -35 7 c-19 4 -29 8
-22 9 6 0 12 14 12 31 0 27 -3 30 -30 30 -23 0 -30 -4 -30 -20z"/>
<path d="M3220 2626 c0 -14 5 -28 10 -31 6 -3 10 0 10 9 0 8 3 21 6 30 4 11 1
16 -10 16 -10 0 -16 -9 -16 -24z"/>
<path d="M3380 2641 c0 -6 9 -9 19 -8 11 0 17 5 15 9 -7 11 -34 10 -34 -1z"/>
<path d="M2420 2615 c0 -14 6 -26 13 -26 6 -1 -4 -5 -23 -9 l-35 -8 35 1 c35
2 38 6 24 41 -6 16 -4 18 9 13 9 -3 17 -2 17 3 0 6 -9 10 -20 10 -15 0 -20 -7
-20 -25z"/>
<path d="M2532 2618 c2 -13 10 -23 18 -23 8 0 21 -6 28 -12 7 -7 21 -13 30
-12 13 0 12 2 -4 9 -11 4 -28 20 -37 34 -21 32 -39 34 -35 4z"/>
<path d="M3600 2616 c0 -14 6 -27 13 -27 6 -1 -4 -5 -23 -9 l-35 -7 32 -2 c34
-1 54 16 33 29 -7 4 -10 12 -6 18 3 6 2 13 -4 17 -6 4 -10 -5 -10 -19z"/>
<path d="M356 2613 c-4 -9 -1 -20 5 -24 8 -5 1 -9 -17 -12 l-29 -5 30 2 c25 1
29 5 27 24 -2 15 2 22 13 22 11 0 15 -5 11 -15 -3 -8 -1 -15 4 -15 6 0 10 9
10 20 0 25 -45 28 -54 3z"/>
<path d="M793 2615 c-8 -8 -9 -16 -3 -20 5 -3 14 4 20 15 12 23 1 26 -17 5z"/>
<path d="M857 2616 c-9 -22 5 -28 19 -8 12 16 13 16 19 0 4 -10 11 -16 16 -13
4 3 6 12 2 20 -7 19 -49 20 -56 1z"/>
<path d="M3700 2610 c0 -11 5 -20 11 -20 5 0 8 4 4 9 -11 19 17 23 31 5 15
-18 15 -18 10 -1 -3 10 -6 21 -6 23 0 2 -11 4 -25 4 -18 0 -25 -5 -25 -20z"/>
<path d="M1037 2613 c-4 -3 -7 -11 -7 -17 0 -6 5 -5 12 2 6 6 9 14 7 17 -3 3
-9 2 -12 -2z"/>
<path d="M1580 2604 c0 -8 5 -12 10 -9 6 4 8 11 5 16 -9 14 -15 11 -15 -7z"/>
<path d="M2800 2611 c0 -5 5 -13 10 -16 6 -3 10 -2 10 4 0 5 -4 13 -10 16 -5
3 -10 2 -10 -4z"/>
<path d="M3380 2610 c0 -13 18 -22 24 -11 3 5 -1 11 -9 15 -8 3 -15 1 -15 -4z"/>
<path d="M549 2577 c5 -5 21 -7 37 -5 27 3 26 4 -8 9 -22 3 -34 1 -29 -4z"/>
<path d="M2920 2580 l-35 -7 32 -2 c17 0 35 4 38 9 3 6 5 9 3 9 -2 -1 -19 -5
-38 -9z"/>
<path d="M3929 2577 c5 -5 21 -7 37 -5 27 3 26 4 -8 9 -22 3 -34 1 -29 -4z"/>
<path d="M413 2573 c9 -2 25 -2 35 0 9 3 1 5 -18 5 -19 0 -27 -2 -17 -5z"/>
<path d="M1107 2573 c18 -2 50 -2 70 0 21 2 7 4 -32 4 -38 0 -55 -2 -38 -4z"/>
<path d="M1593 2573 c9 -2 25 -2 35 0 9 3 1 5 -18 5 -19 0 -27 -2 -17 -5z"/>
<path d="M2503 2573 c9 -2 25 -2 35 0 9 3 1 5 -18 5 -19 0 -27 -2 -17 -5z"/>
<path d="M3088 2573 c12 -2 30 -2 40 0 9 3 -1 5 -23 4 -22 0 -30 -2 -17 -4z"/>
<path d="M3193 2573 c9 -2 25 -2 35 0 9 3 1 5 -18 5 -19 0 -27 -2 -17 -5z"/>
</g>
</svg>
