<svg id="Layer_1" data-name="Layer 1" xmlns="http://www.w3.org/2000/svg" viewBox="0 0 1539 725"><defs><style>.cls-1,.cls-3{fill:#ccb56e;}.cls-2{fill:#f8fbfb;}.cls-3{font-size:72.52px;font-family:Superclarendon-Light, Superclarendon;font-weight:300;}.cls-4{letter-spacing:-0.02em;}.cls-5{letter-spacing:-0.17em;}</style></defs><path class="cls-1" d="M596.94,278.43c9.86,5.66,19.85,4.32,29.58,3.89,24.91-1.09,47.41,6.89,68,19.53,13.56,8.34,23.19,21.6,32.32,34.71,1.91,2.75,2.07,7.55,5.89,7.95,4.56.47,6-4.72,7.07-7.61,3.46-9,10.65-14.76,17.06-20.85,10-9.47,20.21-19.24,33.6-23.84,15.15-5.2,30.08-11.81,46.83-10.06,4.47.47,9-.39,13.52-.83,6.52-.65,12.5,3,18.82,4.42,26.24,5.93,46.9,20.22,64,41.47,18.3,22.76,24.89,48.05,24.71,76.43-.34,53.14,0,106.28.08,159.43,0,6.21-.52,11-8.9,10.7-11.1-.41-13.48-1.56-13.45-10.94.18-50.46-1.09-100.94.61-151.39,1-29.86-6.52-56.67-27.36-78.52-15.75-16.5-35.35-26.29-58.39-28.09-28-2.18-53,4.82-74.39,24-17.89,16-28.91,35.25-30.55,59.27-4,58.08-1.15,116.24-1.74,174.36-.08,8.51-2,10.82-10.53,11.06-8.32.23-10.68-2.13-10.68-11,0-53.14-.19-106.29.15-159.43.17-25.66-7.21-48.85-24.28-67.51-15.5-16.94-35.24-28.4-58.92-30.57-18.78-1.71-37.44-1.32-54.59,8.17-33.11,18.32-53.33,45.57-54,84.13-.89,55-.27,110-.28,165,0,9.57-1.6,11.26-11,11.39s-11.09-1.27-11.09-11.12c-.05-88.39.09-176.78-.21-265.17,0-8.88,4.44-9.15,10.9-9.26,6.89-.11,11.58,1.52,11.37,9.61-.15,5.61,0,11.22.09,16.82,0,2.62-.63,5.75,2.17,7.21,3.41,1.78,5.66-1.28,7.42-3.25,11.45-12.78,25.42-21.84,41.15-28.23,5.41-2.2,11.21-3.41,16.81-5.16,1.94-.61,4.79-.81,4.52-3.6C603,278.58,600.39,278.23,596.94,278.43Z"/><path class="cls-1" d="M409.48,430.67q0,64.9,0,129.81c0,12.1-6.8,16.63-18.12,12.33-4.32-1.64-4-5.4-4.09-8.69-.21-12.55-.1-25.1-.15-37.65,0-2.67-.12-5.34-.38-8-.16-1.59-.68-3.21-2.62-3.57-1.6-.3-2.32,1-3.1,2a2.8,2.8,0,0,1-.49.63c-6.79,5-6.85,15.18-16,18.89-8.58,3.5-13.63,12.46-22,17-8,4.26-15.48,9.41-23.77,13.12-29.66,13.29-60,16.69-92.12,9.52-23.85-5.33-44.29-16.27-62.48-31.7a137.7,137.7,0,0,1-28.5-33c-9.42-15.33-17.47-31.11-21.31-48.78-6.67-30.7-3.66-60.54,8.68-89.35,17.42-40.66,47.56-68.53,88.77-83.27,38.26-13.7,75.83-9.35,112.69,7.94,16.82,7.9,29.5,20.55,43.68,31.51,4.67,3.61,7.49,9.57,11.35,14.3,1.36,1.67,2.13,5.06,5.25,3.77,2.93-1.2,2.67-4.37,2.66-7,0-12.54-.17-25.09-.27-37.64,0-1.07,0-2.14,0-3.21.13-9.63,7.49-14.91,16.73-11.63,4.2,1.5,5.7,5.1,5.64,9.63-.15,11.48,0,23,0,34.45Zm-275.72,1.57c-.4,66.85,55.67,126.91,126.45,126.42,73.85-.51,129-59.93,128-129.56-1.11-70.39-58.34-124.33-126.23-126.16C193.41,301.1,130.11,363.85,133.76,432.24Z"/><path class="cls-1" d="M1525,430.57q0,64.86,0,129.74c0,11.46-7.34,16.29-17.85,11.71-4.13-1.8-4.35-5.8-4.39-9.55-.1-11.74,0-23.49-.06-35.24,0-2.4,0-4.81-.16-7.2-.16-2.11-.26-4.55-2.72-5.31s-3.88,1.41-5,3.06c-6.21,8.74-13.81,16-21.81,23.14a148.41,148.41,0,0,1-55.19,30.93c-45.83,14.37-88.85,7.49-127.68-20.11-23-16.37-40.9-37.84-51.44-64.82-6.85-17.53-11.89-35.34-11.87-54.23,0-35.91,11.62-67.78,34.26-95.66,22.38-27.55,51.55-44.69,85.75-51.82,37.89-7.9,73.34.56,106.19,21.09a143.61,143.61,0,0,1,41.73,38.9c1.31,1.84,2.62,4.67,5.48,3.81,2.63-.79,2.57-3.81,3.17-6.07,1.07-4-.13-7.92-.28-11.88-.43-10.93-.4-21.88-.27-32.82.07-6.65,3.11-10.14,10.46-9.86,9.9.36,11.65,1.67,11.65,11.64q0,65.28,0,130.55ZM1375.55,559c69.92,1.81,128.43-58.23,128.3-128.81-.13-68.24-58-126.62-128.32-125.84-75,.83-126.22,54.78-127.75,125.48C1246.26,500.67,1307.52,559.53,1375.55,559Z"/><path class="cls-1" d="M35.79,295.79q0,132.16,0,264.34c0,11.41-4.18,14.58-15.34,11.68-3.3-.86-4.64-2.73-4.63-6.33q.33-248.3.43-496.6c0-12.79-1-25.58-1.14-38.38-.11-9,2.86-11.39,11.5-11.39,8.15,0,9.31,4.67,9.3,11.54q-.21,132.57-.09,265.14Z"/><path class="cls-1" d="M1137.36,492.32c.21,39.23-23.4,68.75-57.6,76.68-4.67,1.08-9.29,2.45-14,3.3-4.48.82-9.49.57-9.48-5.33,0-5.73-3.44-13.82,6.19-15.72a147.72,147.72,0,0,0,14.81-3.28c21.82-6.63,35.28-21.65,38.23-43.66,2-15.16-3.27-29.67-13.44-42.19-14.45-17.77-31.61-32.95-46.46-50.31-21.45-25.1-23.78-63.73-2.88-90.66,14.92-19.23,34.33-28.64,57.94-30.76,4.5-.41,8.83,0,9.26,6.05.72,10.23-1.59,14.27-8.59,14.85-23.43,1.93-40.59,13.52-48.83,35.35a50.91,50.91,0,0,0,10.37,51.57c16.76,18.1,34.59,35.2,49.56,55C1132.44,466.45,1136.73,480.89,1137.36,492.32Z"/><path class="cls-2" d="M1171.79,284.2a70.86,70.86,0,0,1-27.83-6.33c-9.1-4.27-10.21-8.46-5-17.06,18.62-30.67,51.87-40.72,88.87-26.87,18.44,6.91,18.48,7.1,5.15,21.53C1215.66,274.26,1194.84,284.31,1171.79,284.2Z"/><path class="cls-2" d="M1043.76,232.52c29.55-.14,50.74,11,65.7,33.78,6.34,9.64,4.54,15.05-6.14,18.9-45.42,16.39-75.93-8.55-94-41.44-2-3.7.12-4.61,3-5.51C1023.35,234.82,1034.58,232.75,1043.76,232.52Z"/><path class="cls-2" d="M1152.43,217.25c.25,13.58-6.24,30.33-19,44.62-6.46,7.22-11.41,6.88-17.79-.67-20.49-24.24-21.91-56.37-3.62-83.77a121.51,121.51,0,0,1,14-17.4c3.63-3.73,6-3.19,8.66.93C1144.74,176.36,1151.8,192.79,1152.43,217.25Z"/><path class="cls-2" d="M1196.11,355.1c.21,23.75-.79,24.52-22,13.84-30.09-15.11-46.67-38.79-45.3-73.4.5-12.5,4.9-15.61,16.91-12.16C1178.49,292.79,1195.78,317.37,1196.11,355.1Z"/><text class="cls-3" transform="translate(15 696.23)">A HEALING T<tspan class="cls-4" x="560.67" y="0">O</tspan><tspan x="619.48" y="0">UCH FROM THE </tspan><tspan class="cls-5" x="1296.84" y="0">P</tspan><tspan x="1338.03" y="0">AST</tspan></text></svg>