<?xml version="1.0" standalone="no"?>
<!DOCTYPE svg PUBLIC "-//W3C//DTD SVG 20010904//EN"
 "http://www.w3.org/TR/2001/REC-SVG-20010904/DTD/svg10.dtd">
<svg version="1.0" xmlns="http://www.w3.org/2000/svg"
 width="300.000000pt" height="424.000000pt" viewBox="0 0 300.000000 424.000000"
 preserveAspectRatio="xMidYMid meet">
<metadata>
Created by potrace 1.10, written by Peter Selinger 2001-2011
</metadata>
<g transform="translate(0.000000,424.000000) scale(0.100000,-0.100000)"
fill="#fff" stroke="none">
<path d="M1727 2528 c-63 -73 -130 -150 -148 -171 l-34 -39 -58 15 c-63 17
-74 23 -64 34 4 4 31 -3 60 -15 57 -24 71 -27 63 -13 -7 11 -134 71 -151 71
-13 0 -65 -58 -110 -123 -13 -18 -14 -18 -59 8 -25 15 -49 24 -54 21 -5 -3
-29 -38 -53 -78 -23 -40 -58 -94 -77 -120 l-35 -47 -30 45 c-38 58 -215 206
-241 202 -11 -2 -52 -46 -96 -103 -65 -85 -189 -204 -291 -279 -19 -14 -120
-188 -113 -195 3 -3 21 13 40 36 20 24 57 53 85 65 27 13 49 26 49 29 0 18 88
121 121 144 21 14 40 25 43 25 7 0 -6 -85 -15 -94 -5 -6 -9 5 -9 27 0 20 -4
37 -8 37 -11 0 -71 -74 -98 -119 -12 -22 -40 -47 -70 -63 -57 -31 -100 -76
-86 -90 14 -14 178 90 179 114 3 29 37 83 53 83 23 0 23 -30 -1 -95 -16 -45
-26 -60 -41 -60 -15 0 -18 5 -13 20 6 20 6 20 -27 0 -18 -11 -46 -31 -63 -44
-26 -22 -27 -25 -10 -25 11 0 37 3 58 8 30 7 39 6 47 -8 7 -12 13 -14 27 -5
30 17 51 73 74 194 23 117 26 127 34 119 6 -7 -41 -252 -54 -276 -6 -12 -11
-32 -11 -45 1 -22 2 -21 29 10 15 17 30 32 34 32 3 0 3 -25 0 -55 -9 -85 12
-67 25 21 7 55 19 90 41 126 38 61 40 84 2 41 -15 -18 -30 -33 -32 -33 -3 0
-2 33 3 73 4 39 7 97 6 127 0 31 4 65 10 77 35 64 34 103 -1 44 -27 -46 -102
-124 -138 -145 -27 -15 -20 -4 37 55 38 41 92 104 118 142 26 37 49 67 52 67
12 0 38 -73 59 -166 13 -58 26 -108 29 -112 10 -9 7 51 -5 91 -6 22 -8 41 -6
44 8 7 81 -191 124 -337 48 -161 57 -200 46 -200 -4 0 -35 39 -68 88 -59 87
-131 172 -145 172 -4 0 -10 -17 -14 -37 -3 -21 -24 -65 -46 -98 -22 -33 -40
-63 -40 -66 0 -4 29 -9 65 -11 55 -3 70 -8 90 -31 37 -39 171 -69 182 -40 8
20 -21 151 -57 257 -28 83 -28 86 -9 86 17 0 19 4 13 23 -25 76 -32 106 -27
111 8 8 102 -137 148 -227 43 -85 76 -139 81 -135 2 2 -17 43 -42 92 -25 48
-43 90 -41 93 3 3 36 -34 73 -81 37 -47 70 -84 72 -81 2 2 -41 75 -97 162
l-101 158 44 44 44 44 69 -51 c88 -65 169 -152 208 -221 16 -30 35 -56 41 -58
7 -2 22 12 34 32 12 19 29 42 37 51 11 10 12 19 5 26 -6 6 -19 -2 -38 -26 -16
-20 -34 -36 -40 -36 -7 0 -19 19 -29 43 -9 23 -32 55 -51 71 -40 32 -130 179
-113 185 6 2 4 10 -6 21 -9 10 -18 35 -22 56 l-6 39 56 -53 c30 -30 65 -59 78
-66 13 -6 28 -26 34 -44 5 -17 15 -32 22 -32 24 0 13 27 -37 96 -27 38 -50 72
-50 77 0 12 68 99 90 114 18 12 20 10 31 -28 10 -31 25 -50 66 -80 60 -45 63
-57 33 -136 -19 -51 -19 -52 0 -75 l19 -23 -5 45 c-4 39 -3 42 8 26 7 -10 23
-31 35 -46 12 -14 43 -68 69 -118 47 -93 106 -172 119 -160 9 9 -35 105 -75
163 -17 25 -29 45 -26 45 3 0 29 -16 57 -37 56 -40 52 -41 91 32 11 22 33 58
48 80 27 39 179 292 234 388 15 27 30 46 33 43 3 -3 -11 -35 -31 -71 -47 -86
-147 -307 -142 -313 16 -15 68 64 113 172 36 87 59 126 73 126 15 0 12 -24
-12 -87 -16 -44 -21 -76 -19 -135 1 -43 -3 -87 -9 -99 -7 -11 -8 -24 -4 -27 4
-4 9 -1 11 6 6 16 23 15 23 -1 0 -19 33 -47 53 -47 19 0 23 15 7 25 -21 13 -5
130 21 159 5 5 14 4 24 -4 12 -10 18 -10 30 0 25 21 17 69 -25 145 -22 40 -40
80 -40 90 0 14 -3 13 -20 -6 -10 -13 -19 -20 -20 -16 0 11 28 77 34 77 2 0 12
-25 21 -55 11 -39 24 -60 43 -72 15 -9 29 -18 31 -20 2 -1 -1 -9 -7 -16 -14
-16 -6 -28 14 -20 24 9 16 37 -20 73 -32 33 -34 38 -29 83 4 34 2 52 -9 65 -9
9 -19 28 -23 40 -6 20 -4 23 12 20 10 -2 17 -10 15 -17 -1 -6 4 -22 13 -34 9
-13 15 -43 15 -75 0 -54 1 -55 74 -131 55 -57 76 -86 82 -116 l9 -40 3 48 c3
42 -4 64 -52 163 -31 63 -56 117 -56 121 0 17 51 -44 69 -82 13 -28 42 -60 83
-92 76 -59 97 -76 81 -68 -8 3 -13 0 -13 -8 0 -7 -12 -19 -26 -26 l-27 -12 24
-25 c13 -14 41 -35 62 -47 22 -12 45 -33 53 -47 13 -25 13 -24 14 17 0 23 -4
53 -10 67 -5 14 -7 26 -5 26 3 0 33 -22 67 -50 97 -78 92 -58 -9 38 -331 314
-381 359 -436 387 l-59 30 -16 -25 c-10 -13 -37 -47 -60 -75 -24 -27 -55 -72
-69 -100 -14 -27 -40 -68 -58 -90 -18 -23 -40 -58 -48 -78 -9 -20 -36 -68 -61
-107 -59 -90 -81 -94 -125 -17 -16 28 -62 83 -100 122 -39 38 -71 74 -71 80 1
17 90 108 90 92 0 -8 6 -17 14 -20 8 -3 17 -21 21 -39 19 -95 29 -90 45 22 13
89 23 109 35 70 3 -11 11 -20 16 -20 12 0 11 14 -2 27 -14 14 -8 55 10 61 12
4 13 -9 8 -74 -3 -44 -13 -100 -21 -126 -8 -27 -11 -48 -7 -48 9 0 61 166 61
192 0 19 68 87 87 88 6 0 14 -8 17 -18 8 -23 76 -90 76 -75 0 6 -10 24 -23 40
-13 15 -35 49 -50 75 -27 46 -82 98 -105 98 -6 0 -62 -60 -125 -132z m203 34
c-7 -3 -23 1 -36 9 -18 9 -24 21 -24 43 l1 31 35 -40 c20 -23 30 -41 24 -43z
m-140 8 c-13 -24 -8 -25 28 -4 25 15 26 15 7 -1 -26 -21 -75 -47 -75 -39 0 8
40 64 46 64 3 0 0 -9 -6 -20z m-21 -87 c-9 -10 -14 -11 -19 -3 -5 7 -19 -2
-39 -26 -17 -21 -31 -35 -31 -31 0 21 55 75 77 75 19 0 21 -3 12 -15z m397
-159 c-19 -58 -12 -73 22 -42 l26 23 -24 -35 c-13 -19 -28 -38 -33 -41 -5 -4
-7 -11 -4 -16 3 -5 0 -31 -8 -59 l-14 -49 4 90 c4 86 33 214 42 187 3 -7 -2
-33 -11 -58z m-698 -24 c7 -11 18 -20 26 -20 7 0 19 -7 26 -15 7 -8 10 -15 6
-15 -12 0 -86 53 -86 61 0 16 15 10 28 -11z m-205 -49 c7 -8 -7 -3 -30 10 -24
13 -43 28 -43 32 0 10 57 -23 73 -42z m-83 15 c0 -10 -43 -77 -47 -73 -6 7 29
77 39 77 4 0 8 -2 8 -4z m-346 -93 c23 -66 13 -64 -18 3 -30 65 -31 71 -12 55
8 -7 22 -33 30 -58z m786 0 c-11 -35 -9 -46 10 -92 29 -67 45 -52 25 23 -16
61 -13 88 4 43 6 -15 16 -25 23 -22 12 5 88 -100 88 -121 0 -26 -22 -31 -63
-16 -53 21 -61 29 -93 92 -23 45 -24 54 -13 88 14 45 20 55 26 49 2 -3 -1 -23
-7 -44z m-718 -30 c22 -20 23 -36 2 -54 -19 -16 -34 2 -34 44 0 31 6 33 32 10z
m-502 -228 c-24 -25 -49 -45 -55 -45 -11 0 80 90 91 90 5 0 -12 -20 -36 -45z
m445 -189 c41 -58 54 -86 40 -86 -3 0 -28 16 -56 35 -28 19 -60 35 -70 35 -11
0 -19 6 -19 13 0 21 40 78 50 72 5 -3 30 -34 55 -69z"/>
<path d="M2305 2280 c-4 -6 -3 -24 0 -41 6 -26 2 -36 -25 -64 -29 -30 -31 -37
-25 -76 6 -36 5 -41 -9 -36 -12 5 -16 0 -16 -18 0 -13 -5 -46 -11 -73 -11 -46
-10 -52 10 -78 19 -24 20 -29 6 -36 -8 -5 -15 -13 -15 -18 0 -15 26 -12 40 5
9 11 7 22 -10 53 l-22 39 31 54 c20 36 28 62 24 77 -8 32 12 27 40 -10 41 -54
57 -95 57 -140 0 -31 3 -39 10 -28 20 31 10 84 -25 143 -48 80 -53 103 -25
132 17 18 21 30 16 51 -9 36 -42 78 -51 64z"/>
<path d="M2066 2197 c-11 -15 -24 -26 -31 -23 -12 4 -36 -37 -60 -105 -15 -42
-6 -59 32 -59 13 0 23 -4 23 -10 0 -5 5 -10 10 -10 6 0 10 18 10 40 0 22 9 68
21 101 25 75 22 107 -5 66z"/>
<path d="M2371 2160 c-1 -72 12 -106 29 -80 5 8 8 21 5 28 -3 8 6 12 25 12 27
0 29 -3 36 -46 5 -34 3 -48 -7 -54 -11 -7 -10 -13 6 -30 24 -27 34 -11 28 44
-6 55 -24 126 -32 126 -4 0 -12 -5 -18 -11 -17 -17 -45 4 -59 43 -12 32 -12
31 -13 -32z"/>
</g>
</svg>
